<svg width="20" height="20" viewBox="0 0 20 20" fill="none" xmlns="http://www.w3.org/2000/svg">
<path opacity="0.3" d="M14.9999 1.66669H8.33325C6.95254 1.66669 5.83325 2.78598 5.83325 4.16669V12.5C5.83325 13.8807 6.95254 15 8.33325 15H14.9999C16.3806 15 17.4999 13.8807 17.4999 12.5V4.16669C17.4999 2.78598 16.3806 1.66669 14.9999 1.66669Z" fill="#AAADB3"/>
<path d="M11.6667 5H5C3.61929 5 2.5 6.11929 2.5 7.5V15.8333C2.5 17.214 3.61929 18.3333 5 18.3333H11.6667C13.0474 18.3333 14.1667 17.214 14.1667 15.8333V7.5C14.1667 6.11929 13.0474 5 11.6667 5Z" fill="#AAADB3"/>
</svg>
