<svg width="24" height="24" viewBox="0 0 24 24" fill="none" xmlns="http://www.w3.org/2000/svg">
<path d="M12 2C6.475 2 2 6.588 2 12.253C2 16.79 4.862 20.622 8.838 21.98C9.338 22.07 9.525 21.762 9.525 21.493C9.525 21.25 9.512 20.443 9.512 19.583C7 20.059 6.35 18.957 6.15 18.38C6.037 18.085 5.55 17.175 5.125 16.932C4.775 16.74 4.275 16.265 5.112 16.252C5.9 16.24 6.462 16.996 6.65 17.303C7.55 18.854 8.988 18.419 9.562 18.149C9.65 17.483 9.912 17.034 10.2 16.778C7.975 16.522 5.65 15.638 5.65 11.716C5.65 10.601 6.037 9.678 6.675 8.96C6.575 8.704 6.225 7.653 6.775 6.243C6.775 6.243 7.612 5.974 9.525 7.294C10.325 7.064 11.175 6.948 12.025 6.948C12.875 6.948 13.725 7.063 14.525 7.294C16.437 5.961 17.275 6.244 17.275 6.244C17.825 7.653 17.475 8.704 17.375 8.96C18.012 9.678 18.4 10.588 18.4 11.716C18.4 15.65 16.063 16.522 13.838 16.778C14.2 17.098 14.513 17.714 14.513 18.675C14.513 20.046 14.5 21.148 14.5 21.495C14.5 21.763 14.688 22.084 15.188 21.981C17.1849 21.2849 18.911 19.976 20.12 18.241C21.3456 16.4849 22.0019 14.3945 22 12.253C22 6.588 17.525 2 12 2Z" fill="black"/>
</svg>
