<svg width="30" height="30" viewBox="0 0 30 30" fill="none" xmlns="http://www.w3.org/2000/svg">
<path d="M10.9 8.25C11.7008 8.25 12.35 8.8992 12.35 9.7C12.35 10.4436 11.7902 11.0565 11.0691 11.1402L10.9 11.15H8C5.59757 11.15 3.65 13.0975 3.65 15.5C3.65 17.8167 5.46094 19.7104 7.74441 19.8426L8 19.85H10.9C11.7008 19.85 12.35 20.4992 12.35 21.3C12.35 22.0435 11.7902 22.6565 11.0691 22.7403L10.9 22.75H8C3.99594 22.75 0.75 19.504 0.75 15.5C0.75 11.6013 3.82736 8.42136 7.68552 8.2567L8 8.25H10.9ZM22.5 8.25C26.5041 8.25 29.75 11.4959 29.75 15.5C29.75 19.3988 26.6727 22.5786 22.8144 22.7434L22.5 22.75H19.6C18.7992 22.75 18.15 22.1008 18.15 21.3C18.15 20.5564 18.7097 19.9435 19.431 19.8597L19.6 19.85H22.5C24.9024 19.85 26.85 17.9025 26.85 15.5C26.85 13.1833 25.0392 11.2897 22.7556 11.1574L22.5 11.15H19.6C18.7992 11.15 18.15 10.5008 18.15 9.7C18.15 8.95638 18.7097 8.34351 19.431 8.25976L19.6 8.25H22.5ZM8 14.05H22.5C23.3008 14.05 23.95 14.6992 23.95 15.5C23.95 16.2436 23.3903 16.8565 22.669 16.9403L22.5 16.95H8C7.1992 16.95 6.55 16.3008 6.55 15.5C6.55 14.7564 7.10976 14.1435 7.8309 14.0597L8 14.05Z" fill="black"/>
</svg>
