<svg width="24" height="24" viewBox="0 0 24 24" fill="none" xmlns="http://www.w3.org/2000/svg">
<path d="M18.3594 5.64035C16.4094 3.68035 13.2494 3.68035 11.2894 5.64035L9.87938 7.05035L8.45938 5.64035L9.87938 4.22035C12.6094 1.49035 17.0394 1.49035 19.7794 4.22035C22.5094 6.96035 22.5094 11.3904 19.7794 14.1204L18.3594 15.5404L16.9494 14.1204L18.3594 12.7104C20.3194 10.7504 20.3194 7.59035 18.3594 5.64035ZM16.2394 9.17035L9.16938 16.2404L7.75938 14.8304L14.8294 7.76035L16.2394 9.17035ZM4.21938 9.88035L5.63938 8.46035L7.04938 9.88035L5.63938 11.2904C3.67938 13.2504 3.67938 16.4104 5.63938 18.3604C7.58938 20.3204 10.7494 20.3204 12.7094 18.3604L14.1194 16.9504L15.5394 18.3604L14.1194 19.7804C11.3894 22.5104 6.95938 22.5104 4.21938 19.7804C1.48938 17.0404 1.48938 12.6104 4.21938 9.88035Z" fill="black"/>
</svg>
