<svg width="24" height="24" viewBox="0 0 24 24" fill="none" xmlns="http://www.w3.org/2000/svg">
<path d="M20.055 7.98309C20.066 8.15709 20.066 8.33009 20.066 8.50609C20.066 13.8441 16.146 20.0001 8.976 20.0001V19.9971C6.84873 19.9977 4.76906 19.3675 3 18.1861C3.308 18.2241 3.618 18.2431 3.928 18.2441C5.69321 18.2419 7.40341 17.6296 8.769 16.5111C7.101 16.4791 5.639 15.3511 5.127 13.7061C5.71091 13.8227 6.31419 13.7987 6.887 13.6361C5.07 13.2561 3.76 11.6001 3.76 9.67609V9.62609C4.29921 9.93808 4.90734 10.1116 5.53 10.1311C3.816 8.94509 3.288 6.58309 4.322 4.73709C6.302 7.26109 9.222 8.79509 12.356 8.95709C12.2002 8.27087 12.222 7.55625 12.4194 6.88081C12.6168 6.20537 12.9832 5.59145 13.484 5.09709C13.8515 4.73453 14.2888 4.45048 14.7695 4.26221C15.2501 4.07395 15.764 3.9854 16.28 4.00196C16.7959 4.01851 17.3031 4.13983 17.7707 4.35852C18.2383 4.57721 18.6565 4.88872 19 5.27409C19.8759 5.09444 20.7135 4.76276 21.475 4.29409C21.185 5.22809 20.575 6.02309 19.762 6.52709C20.5365 6.43184 21.2915 6.21695 22 5.89009C21.4811 6.69771 20.8225 7.40644 20.055 7.98309Z" fill="black"/>
</svg>
